<svg width="669" height="217" viewBox="0 0 669 217" fill="none" xmlns="http://www.w3.org/2000/svg">
<g filter="url(#filter0_d)">
<path d="M57.0424 64.568L58.7704 63.32C60.9464 62.04 62.4824 61.4 63.3784 61.4C65.3624 61.4 67.5064 63.192 69.8104 66.776C71.2184 69.016 71.9224 70.808 71.9224 72.152C71.9224 73.496 71.4744 74.616 70.5784 75.512C69.7464 76.408 68.7544 77.208 67.6024 77.912C66.4504 78.616 65.3304 79.288 64.2424 79.928C63.2184 80.568 61.0744 81.4 57.8104 82.424C54.5464 83.448 51.3784 83.96 48.3064 83.96C45.2984 83.96 42.2264 83.576 39.0904 82.808C36.0184 81.976 32.8184 80.632 29.4904 78.776C26.2264 76.856 23.2824 74.552 20.6584 71.864C18.0344 69.112 15.8584 65.624 14.1304 61.4C12.4664 57.112 11.6344 52.472 11.6344 47.48C11.6344 42.488 12.4664 37.976 14.1304 33.944C15.7944 29.848 17.9064 26.488 20.4664 23.864C23.0904 21.176 26.0664 18.936 29.3944 17.144C35.6664 13.688 41.9704 11.96 48.3064 11.96C51.3144 11.96 54.3544 12.44 57.4264 13.4C60.5624 14.296 62.9304 15.224 64.5304 16.184L66.8344 17.528C67.9864 18.232 68.8824 18.808 69.5224 19.256C71.1864 20.6 72.0184 22.136 72.0184 23.864C72.0184 25.528 71.3464 27.288 70.0024 29.144C67.5064 32.6 65.2664 34.328 63.2824 34.328C62.1304 34.328 60.4984 33.624 58.3864 32.216C55.6984 30.04 52.1144 28.952 47.6344 28.952C43.4744 28.952 39.3784 30.392 35.3464 33.272C33.4264 34.68 31.8264 36.664 30.5464 39.224C29.2664 41.784 28.6264 44.696 28.6264 47.96C28.6264 51.16 29.2664 54.04 30.5464 56.6C31.8264 59.16 33.4584 61.176 35.4424 62.648C39.3464 65.464 43.4104 66.872 47.6344 66.872C49.6184 66.872 51.4744 66.616 53.2024 66.104C54.9944 65.592 56.2744 65.08 57.0424 64.568ZM76.7906 57.752C76.7906 50.072 79.4786 43.736 84.8546 38.744C90.2306 33.752 96.3746 31.256 103.287 31.256C110.199 31.256 116.311 33.752 121.623 38.744C126.935 43.672 129.591 49.976 129.591 57.656C129.591 62.968 128.215 67.704 125.463 71.864C122.711 75.96 119.351 79 115.383 80.984C111.479 82.904 107.415 83.864 103.191 83.864C98.9666 83.864 94.8706 82.84 90.9026 80.792C86.9346 78.68 83.5746 75.608 80.8226 71.576C78.1346 67.48 76.7906 62.872 76.7906 57.752ZM96.8546 64.664C98.9026 66.2 100.983 66.968 103.095 66.968C105.207 66.968 107.319 66.168 109.431 64.568C111.543 62.968 112.599 60.6 112.599 57.464C112.599 54.328 111.607 51.992 109.623 50.456C107.639 48.92 105.495 48.152 103.191 48.152C100.887 48.152 98.7426 48.952 96.7586 50.552C94.7746 52.152 93.7826 54.52 93.7826 57.656C93.7826 60.728 94.8066 63.064 96.8546 64.664ZM135.793 17.048C135.793 15.576 135.825 14.488 135.889 13.784C136.017 13.016 136.305 12.152 136.753 11.192C137.649 9.464 140.145 8.6 144.241 8.6C148.145 8.6 150.577 9.464 151.537 11.192C152.049 12.152 152.337 13.016 152.401 13.784C152.529 14.552 152.593 15.672 152.593 17.144V61.592C152.593 63.896 152.785 65.368 153.169 66.008C153.553 66.584 154.385 66.872 155.665 66.872C157.009 66.872 157.905 66.936 158.353 67.064C158.801 67.128 159.345 67.384 159.985 67.832C161.265 68.664 161.905 70.936 161.905 74.648C161.905 78.68 161.265 81.144 159.985 82.04C158.321 83.192 154.353 83.384 148.081 82.616C143.153 81.976 139.953 80.344 138.481 77.72C136.689 74.584 135.793 69.592 135.793 62.744V17.048ZM165.759 57.752C165.759 50.072 168.447 43.736 173.823 38.744C179.199 33.752 185.343 31.256 192.255 31.256C199.167 31.256 205.279 33.752 210.591 38.744C215.903 43.672 218.559 49.976 218.559 57.656C218.559 62.968 217.183 67.704 214.431 71.864C211.679 75.96 208.319 79 204.351 80.984C200.447 82.904 196.383 83.864 192.159 83.864C187.935 83.864 183.839 82.84 179.871 80.792C175.903 78.68 172.543 75.608 169.791 71.576C167.103 67.48 165.759 62.872 165.759 57.752ZM185.823 64.664C187.871 66.2 189.951 66.968 192.063 66.968C194.175 66.968 196.287 66.168 198.399 64.568C200.511 62.968 201.567 60.6 201.567 57.464C201.567 54.328 200.575 51.992 198.591 50.456C196.607 48.92 194.463 48.152 192.159 48.152C189.855 48.152 187.711 48.952 185.727 50.552C183.743 52.152 182.751 54.52 182.751 57.656C182.751 60.728 183.775 63.064 185.823 64.664ZM259.13 32.984C260.346 33.368 261.338 34.04 262.106 35C262.938 35.896 263.354 37.368 263.354 39.416C263.354 41.464 262.746 43.704 261.53 46.136C260.314 48.568 258.554 49.784 256.25 49.784C255.098 49.784 253.978 49.528 252.89 49.016C251.866 48.504 250.49 48.248 248.762 48.248C247.034 48.248 245.402 48.856 243.866 50.072C242.394 51.288 241.658 52.76 241.658 54.488V74.648C241.658 76.12 241.594 77.24 241.466 78.008C241.402 78.712 241.114 79.544 240.602 80.504C239.642 82.168 237.146 83 233.114 83C230.042 83 227.834 82.456 226.49 81.368C225.466 80.472 224.89 79.096 224.762 77.24C224.762 76.6 224.762 75.672 224.762 74.456V40.76C224.762 39.288 224.794 38.2 224.858 37.496C224.986 36.728 225.274 35.896 225.722 35C226.618 33.272 229.114 32.408 233.21 32.408C237.05 32.408 239.45 33.144 240.41 34.616C241.114 35.64 241.466 36.696 241.466 37.784C241.786 37.336 242.234 36.792 242.81 36.152C243.45 35.512 244.762 34.648 246.746 33.56C248.73 32.472 250.458 31.928 251.93 31.928C253.466 31.928 254.746 32.024 255.77 32.216C256.794 32.344 257.914 32.6 259.13 32.984ZM346.774 71.096C347.734 73.4 348.214 75.064 348.214 76.088C348.214 78.52 346.23 80.568 342.262 82.232C340.214 83.128 338.55 83.576 337.27 83.576C336.054 83.576 335.03 83.288 334.198 82.712C333.43 82.072 332.854 81.432 332.47 80.792C331.83 79.576 329.334 73.784 324.982 63.416L322.006 63.608H309.91V74.456C309.91 75.928 309.846 77.048 309.718 77.816C309.654 78.52 309.366 79.352 308.854 80.312C307.958 82.04 305.462 82.904 301.366 82.904C296.886 82.904 294.262 81.72 293.494 79.352C293.11 78.264 292.918 76.6 292.918 74.36V21.08C292.918 19.608 292.95 18.52 293.014 17.816C293.142 17.048 293.462 16.184 293.974 15.224C294.87 13.496 297.366 12.632 301.462 12.632H322.198C327.83 12.632 333.302 14.68 338.614 18.776C341.174 20.76 343.286 23.448 344.95 26.84C346.614 30.232 347.446 34.008 347.446 38.168C347.446 45.4 345.046 51.352 340.246 56.024C341.654 59.416 343.83 64.44 346.774 71.096ZM309.91 46.616H322.198C324.054 46.616 325.91 45.912 327.766 44.504C329.622 43.096 330.55 40.984 330.55 38.168C330.55 35.352 329.622 33.24 327.766 31.832C325.91 30.36 323.99 29.624 322.006 29.624H309.91V46.616ZM384.438 37.784C384.822 34.2 387.35 32.408 392.022 32.408C394.518 32.408 396.374 32.6 397.59 32.984C398.806 33.368 399.638 34.04 400.086 35C400.598 35.96 400.886 36.824 400.95 37.592C401.078 38.296 401.142 39.384 401.142 40.856V74.456C401.142 75.928 401.078 77.048 400.95 77.816C400.886 78.52 400.63 79.352 400.182 80.312C399.286 81.976 397.078 82.808 393.558 82.808C390.102 82.808 387.766 82.392 386.55 81.56C385.398 80.664 384.726 79.384 384.534 77.72C382.166 81.112 378.198 82.808 372.63 82.808C367.126 82.808 362.006 80.28 357.27 75.224C352.534 70.168 350.166 64.312 350.166 57.656C350.166 50.936 352.534 45.08 357.27 40.088C362.07 35.032 367.318 32.504 373.014 32.504C375.19 32.504 377.174 32.888 378.966 33.656C380.758 34.424 382.006 35.16 382.71 35.864C383.414 36.504 383.99 37.144 384.438 37.784ZM366.966 57.752C366.966 59.864 367.798 61.784 369.462 63.512C371.126 65.176 373.142 66.008 375.51 66.008C377.878 66.008 379.83 65.144 381.366 63.416C382.966 61.688 383.766 59.8 383.766 57.752C383.766 55.64 382.998 53.688 381.462 51.896C379.99 50.104 377.974 49.208 375.414 49.208C372.918 49.208 370.87 50.104 369.27 51.896C367.734 53.688 366.966 55.64 366.966 57.752ZM436.921 32.408C443.321 32.408 448.633 34.872 452.857 39.8C457.145 44.664 459.289 50.616 459.289 57.656V74.552C459.289 76.024 459.225 77.144 459.097 77.912C459.033 78.616 458.777 79.416 458.329 80.312C457.433 82.04 454.937 82.904 450.841 82.904C446.297 82.904 443.673 81.72 442.969 79.352C442.585 78.264 442.393 76.632 442.393 74.456V57.56C442.393 54.936 441.625 52.888 440.089 51.416C438.617 49.944 436.601 49.208 434.041 49.208C431.545 49.208 429.497 49.976 427.897 51.512C426.361 53.048 425.593 55.064 425.593 57.56V74.552C425.593 76.024 425.529 77.144 425.401 77.912C425.337 78.616 425.049 79.416 424.537 80.312C423.705 82.04 421.241 82.904 417.145 82.904C413.113 82.904 410.649 82.04 409.753 80.312C409.305 79.352 409.017 78.52 408.889 77.816C408.825 77.048 408.793 75.928 408.793 74.456V40.472C408.793 39.064 408.825 38.008 408.889 37.304C409.017 36.536 409.337 35.704 409.849 34.808C410.745 33.208 413.209 32.408 417.241 32.408C421.145 32.408 423.545 33.144 424.441 34.616C425.081 35.704 425.401 37.016 425.401 38.552C425.657 38.104 426.233 37.464 427.129 36.632C428.025 35.8 428.889 35.128 429.721 34.616C431.897 33.144 434.297 32.408 436.921 32.408ZM500.9 11.384C501.412 10.424 502.276 9.752 503.492 9.368C504.708 8.984 506.308 8.79199 508.292 8.79199C510.34 8.79199 511.972 8.984 513.188 9.368C514.404 9.752 515.236 10.424 515.684 11.384C516.196 12.344 516.484 13.208 516.548 13.976C516.676 14.68 516.74 15.768 516.74 17.24V74.552C516.74 76.024 516.676 77.144 516.548 77.912C516.484 78.616 516.196 79.416 515.684 80.312C514.724 82.04 512.004 82.904 507.524 82.904C503.108 82.904 500.644 81.336 500.132 78.2C497.444 81.272 493.7 82.808 488.9 82.808C483.14 82.808 477.892 80.312 473.156 75.32C468.42 70.264 466.052 64.408 466.052 57.752C466.052 51.032 468.42 45.144 473.156 40.088C477.956 35.032 483.204 32.504 488.9 32.504C493.636 32.504 497.316 34.104 499.94 37.304V17.144C499.94 15.672 499.972 14.584 500.036 13.88C500.164 13.112 500.452 12.28 500.9 11.384ZM485.348 63.512C487.012 65.24 489.028 66.104 491.396 66.104C493.764 66.104 495.716 65.24 497.252 63.512C498.852 61.784 499.652 59.896 499.652 57.848C499.652 55.736 498.884 53.784 497.348 51.992C495.876 50.2 493.86 49.304 491.3 49.304C488.74 49.304 486.692 50.2 485.156 51.992C483.62 53.72 482.852 55.64 482.852 57.752C482.852 59.864 483.684 61.784 485.348 63.512ZM522.947 57.752C522.947 50.072 525.635 43.736 531.011 38.744C536.387 33.752 542.531 31.256 549.443 31.256C556.355 31.256 562.467 33.752 567.779 38.744C573.091 43.672 575.747 49.976 575.747 57.656C575.747 62.968 574.371 67.704 571.619 71.864C568.867 75.96 565.507 79 561.539 80.984C557.635 82.904 553.571 83.864 549.347 83.864C545.123 83.864 541.027 82.84 537.059 80.792C533.091 78.68 529.731 75.608 526.979 71.576C524.291 67.48 522.947 62.872 522.947 57.752ZM543.011 64.664C545.059 66.2 547.139 66.968 549.251 66.968C551.363 66.968 553.475 66.168 555.587 64.568C557.699 62.968 558.755 60.6 558.755 57.464C558.755 54.328 557.763 51.992 555.779 50.456C553.795 48.92 551.651 48.152 549.347 48.152C547.043 48.152 544.899 48.952 542.915 50.552C540.931 52.152 539.939 54.52 539.939 57.656C539.939 60.728 540.963 63.064 543.011 64.664ZM598.461 39.128C601.469 34.584 605.085 32.312 609.309 32.312C615.837 32.312 620.701 35.096 623.901 40.664C624.605 39.704 625.437 38.712 626.397 37.688C627.421 36.6 629.021 35.448 631.197 34.232C633.373 32.952 635.613 32.312 637.917 32.312C643.037 32.312 647.325 34.296 650.781 38.264C654.237 42.168 655.965 48.664 655.965 57.752V74.552C655.965 76.024 655.901 77.144 655.773 77.912C655.709 78.616 655.421 79.448 654.909 80.408C654.077 82.136 651.613 83 647.517 83C643.485 83 641.021 82.104 640.125 80.312C639.677 79.352 639.389 78.52 639.261 77.816C639.197 77.048 639.165 75.928 639.165 74.456V57.656C639.165 52.088 637.181 49.304 633.213 49.304C630.973 49.304 629.437 50.04 628.605 51.512C627.837 52.984 627.453 55.064 627.453 57.752V74.552C627.453 76.088 627.389 77.208 627.261 77.912C627.197 78.616 626.909 79.448 626.397 80.408C625.501 82.136 623.005 83 618.909 83C614.877 83 612.413 82.104 611.517 80.312C611.069 79.352 610.781 78.52 610.653 77.816C610.589 77.048 610.557 75.928 610.557 74.456V57.656C610.557 52.088 608.573 49.304 604.605 49.304C600.765 49.304 598.845 52.088 598.845 57.656V74.648C598.845 76.12 598.781 77.24 598.653 78.008C598.589 78.712 598.301 79.544 597.789 80.504C596.829 82.168 594.333 83 590.301 83C586.269 83 583.805 82.136 582.909 80.408C582.461 79.448 582.173 78.616 582.045 77.912C581.981 77.208 581.949 76.088 581.949 74.552V40.76C581.949 39.288 581.981 38.2 582.045 37.496C582.173 36.728 582.493 35.896 583.005 35C583.965 33.272 586.237 32.408 589.821 32.408C593.405 32.408 595.741 32.984 596.829 34.136C597.917 35.288 598.461 36.952 598.461 39.128ZM135.246 156.568H152.142C155.598 156.696 157.71 157.592 158.478 159.256C159.118 160.472 159.438 162.264 159.438 164.632V185.752C159.438 187.8 158.542 189.752 156.75 191.608C151.374 197.176 143.31 199.96 132.558 199.96C123.022 199.96 114.734 196.376 107.694 189.208C100.654 181.976 97.1344 173.272 97.1344 163.096C97.1344 152.92 100.718 144.44 107.886 137.656C115.054 130.808 123.502 127.384 133.23 127.384C140.782 127.384 147.918 129.88 154.638 134.872C156.366 136.152 157.23 137.592 157.23 139.192C157.23 140.728 156.494 142.52 155.022 144.568C152.526 147.96 150.254 149.656 148.206 149.656C146.99 149.656 145.038 148.792 142.35 147.064C139.662 145.272 136.462 144.376 132.75 144.376C127.886 144.376 123.566 146.104 119.79 149.56C116.014 152.952 114.126 157.432 114.126 163C114.126 168.504 116.046 173.208 119.886 177.112C123.726 180.952 128.078 182.872 132.942 182.872C136.462 182.872 139.63 182.296 142.446 181.144V170.68H134.862C132.878 170.68 131.47 170.424 130.638 169.912C129.806 169.4 129.262 168.664 129.006 167.704C128.75 166.68 128.622 165.336 128.622 163.672C128.622 161.944 128.75 160.568 129.006 159.544C129.326 158.52 129.87 157.816 130.638 157.432C131.79 156.856 133.326 156.568 135.246 156.568ZM215.874 167.704C215.874 171.608 214.882 174.52 212.898 176.44C210.978 178.296 208.834 179.224 206.466 179.224H183.714C183.714 181.016 184.77 182.52 186.882 183.736C188.994 184.952 191.106 185.56 193.218 185.56C196.93 185.56 199.842 185.176 201.954 184.408L203.01 184.024C204.546 183.32 205.826 182.968 206.85 182.968C208.898 182.968 210.658 184.408 212.13 187.288C212.962 189.016 213.378 190.488 213.378 191.704C213.378 197.4 206.562 200.248 192.93 200.248C188.194 200.248 183.97 199.448 180.258 197.848C176.61 196.184 173.762 194.008 171.714 191.32C167.682 186.136 165.666 180.344 165.666 173.944C165.666 165.88 168.258 159.448 173.442 154.648C178.69 149.784 185.218 147.352 193.026 147.352C201.922 147.352 208.45 150.488 212.61 156.76C214.786 160.088 215.874 163.736 215.874 167.704ZM195.618 170.488C198.05 170.488 199.266 169.464 199.266 167.416C199.266 165.944 198.69 164.76 197.538 163.864C196.45 162.968 194.85 162.52 192.738 162.52C190.69 162.52 188.642 163.384 186.594 165.112C184.546 166.776 183.522 168.568 183.522 170.488H195.618ZM250.265 148.408C256.665 148.408 261.977 150.872 266.201 155.8C270.489 160.664 272.633 166.616 272.633 173.656V190.552C272.633 192.024 272.569 193.144 272.441 193.912C272.377 194.616 272.121 195.416 271.673 196.312C270.777 198.04 268.281 198.904 264.185 198.904C259.641 198.904 257.017 197.72 256.313 195.352C255.929 194.264 255.737 192.632 255.737 190.456V173.56C255.737 170.936 254.969 168.888 253.433 167.416C251.961 165.944 249.945 165.208 247.385 165.208C244.889 165.208 242.841 165.976 241.241 167.512C239.705 169.048 238.937 171.064 238.937 173.56V190.552C238.937 192.024 238.873 193.144 238.745 193.912C238.681 194.616 238.393 195.416 237.881 196.312C237.049 198.04 234.585 198.904 230.489 198.904C226.457 198.904 223.993 198.04 223.097 196.312C222.649 195.352 222.361 194.52 222.233 193.816C222.169 193.048 222.137 191.928 222.137 190.456V156.472C222.137 155.064 222.169 154.008 222.233 153.304C222.361 152.536 222.681 151.704 223.193 150.808C224.089 149.208 226.553 148.408 230.585 148.408C234.489 148.408 236.889 149.144 237.785 150.616C238.425 151.704 238.745 153.016 238.745 154.552C239.001 154.104 239.577 153.464 240.473 152.632C241.369 151.8 242.233 151.128 243.065 150.616C245.241 149.144 247.641 148.408 250.265 148.408ZM329.124 167.704C329.124 171.608 328.132 174.52 326.148 176.44C324.228 178.296 322.084 179.224 319.716 179.224H296.964C296.964 181.016 298.02 182.52 300.132 183.736C302.244 184.952 304.356 185.56 306.468 185.56C310.18 185.56 313.092 185.176 315.204 184.408L316.26 184.024C317.796 183.32 319.076 182.968 320.1 182.968C322.148 182.968 323.908 184.408 325.38 187.288C326.212 189.016 326.628 190.488 326.628 191.704C326.628 197.4 319.812 200.248 306.18 200.248C301.444 200.248 297.22 199.448 293.508 197.848C289.86 196.184 287.012 194.008 284.964 191.32C280.932 186.136 278.916 180.344 278.916 173.944C278.916 165.88 281.508 159.448 286.692 154.648C291.94 149.784 298.468 147.352 306.276 147.352C315.172 147.352 321.7 150.488 325.86 156.76C328.036 160.088 329.124 163.736 329.124 167.704ZM308.868 170.488C311.3 170.488 312.516 169.464 312.516 167.416C312.516 165.944 311.94 164.76 310.788 163.864C309.7 162.968 308.1 162.52 305.988 162.52C303.94 162.52 301.892 163.384 299.844 165.112C297.796 166.776 296.772 168.568 296.772 170.488H308.868ZM369.755 148.984C370.971 149.368 371.963 150.04 372.731 151C373.563 151.896 373.979 153.368 373.979 155.416C373.979 157.464 373.371 159.704 372.155 162.136C370.939 164.568 369.179 165.784 366.875 165.784C365.723 165.784 364.603 165.528 363.515 165.016C362.491 164.504 361.115 164.248 359.387 164.248C357.659 164.248 356.027 164.856 354.491 166.072C353.019 167.288 352.283 168.76 352.283 170.488V190.648C352.283 192.12 352.219 193.24 352.091 194.008C352.027 194.712 351.739 195.544 351.227 196.504C350.267 198.168 347.771 199 343.739 199C340.667 199 338.459 198.456 337.115 197.368C336.091 196.472 335.515 195.096 335.387 193.24C335.387 192.6 335.387 191.672 335.387 190.456V156.76C335.387 155.288 335.419 154.2 335.483 153.496C335.611 152.728 335.899 151.896 336.347 151C337.243 149.272 339.739 148.408 343.835 148.408C347.675 148.408 350.075 149.144 351.035 150.616C351.739 151.64 352.091 152.696 352.091 153.784C352.411 153.336 352.859 152.792 353.435 152.152C354.075 151.512 355.387 150.648 357.371 149.56C359.355 148.472 361.083 147.928 362.555 147.928C364.091 147.928 365.371 148.024 366.395 148.216C367.419 148.344 368.539 148.6 369.755 148.984ZM409.188 153.784C409.572 150.2 412.1 148.408 416.772 148.408C419.268 148.408 421.124 148.6 422.34 148.984C423.556 149.368 424.388 150.04 424.836 151C425.348 151.96 425.636 152.824 425.7 153.592C425.828 154.296 425.892 155.384 425.892 156.856V190.456C425.892 191.928 425.828 193.048 425.7 193.816C425.636 194.52 425.38 195.352 424.932 196.312C424.036 197.976 421.828 198.808 418.308 198.808C414.852 198.808 412.516 198.392 411.3 197.56C410.148 196.664 409.476 195.384 409.284 193.72C406.916 197.112 402.948 198.808 397.38 198.808C391.876 198.808 386.756 196.28 382.02 191.224C377.284 186.168 374.916 180.312 374.916 173.656C374.916 166.936 377.284 161.08 382.02 156.088C386.82 151.032 392.068 148.504 397.764 148.504C399.94 148.504 401.924 148.888 403.716 149.656C405.508 150.424 406.756 151.16 407.46 151.864C408.164 152.504 408.74 153.144 409.188 153.784ZM391.716 173.752C391.716 175.864 392.548 177.784 394.212 179.512C395.876 181.176 397.892 182.008 400.26 182.008C402.628 182.008 404.58 181.144 406.116 179.416C407.716 177.688 408.516 175.8 408.516 173.752C408.516 171.64 407.748 169.688 406.212 167.896C404.74 166.104 402.724 165.208 400.164 165.208C397.668 165.208 395.62 166.104 394.02 167.896C392.484 169.688 391.716 171.64 391.716 173.752ZM462.919 165.4L456.679 165.016V178.264C456.679 179.992 456.935 181.24 457.447 182.008C458.023 182.776 459.047 183.16 460.519 183.16C462.055 183.16 463.207 183.224 463.975 183.352C464.807 183.416 465.671 183.704 466.567 184.216C468.039 185.048 468.775 187.192 468.775 190.648C468.775 194.68 467.879 197.144 466.087 198.04C465.127 198.488 464.263 198.776 463.495 198.904C462.791 198.968 461.735 199 460.327 199C453.671 199 448.615 197.496 445.159 194.488C441.703 191.48 439.975 186.392 439.975 179.224V165.016C438.759 165.208 437.447 165.304 436.039 165.304C434.631 165.304 433.447 164.76 432.487 163.672C431.591 162.584 431.143 160.728 431.143 158.104C431.143 155.48 431.303 153.592 431.623 152.44C431.943 151.224 432.391 150.36 432.967 149.848C433.991 149.016 435.271 148.6 436.807 148.6L439.975 148.984V139.096C439.975 137.624 440.007 136.536 440.071 135.832C440.199 135.128 440.519 134.36 441.031 133.528C441.863 131.928 444.327 131.128 448.423 131.128C452.775 131.128 455.367 132.312 456.199 134.68C456.519 135.704 456.679 137.336 456.679 139.576V148.984C459.495 148.728 461.607 148.6 463.015 148.6C464.487 148.6 465.575 148.664 466.279 148.792C467.047 148.856 467.911 149.144 468.871 149.656C470.535 150.488 471.367 152.952 471.367 157.048C471.367 161.08 470.503 163.544 468.775 164.44C467.815 164.888 466.951 165.176 466.183 165.304C465.479 165.368 464.391 165.4 462.919 165.4ZM475.228 173.752C475.228 166.072 477.916 159.736 483.292 154.744C488.668 149.752 494.812 147.256 501.724 147.256C508.636 147.256 514.748 149.752 520.06 154.744C525.372 159.672 528.028 165.976 528.028 173.656C528.028 178.968 526.652 183.704 523.9 187.864C521.148 191.96 517.788 195 513.82 196.984C509.916 198.904 505.852 199.864 501.628 199.864C497.404 199.864 493.308 198.84 489.34 196.792C485.372 194.68 482.012 191.608 479.26 187.576C476.572 183.48 475.228 178.872 475.228 173.752ZM495.292 180.664C497.34 182.2 499.42 182.968 501.532 182.968C503.644 182.968 505.756 182.168 507.868 180.568C509.98 178.968 511.036 176.6 511.036 173.464C511.036 170.328 510.044 167.992 508.06 166.456C506.076 164.92 503.932 164.152 501.628 164.152C499.324 164.152 497.18 164.952 495.196 166.552C493.212 168.152 492.22 170.52 492.22 173.656C492.22 176.728 493.244 179.064 495.292 180.664ZM568.599 148.984C569.815 149.368 570.807 150.04 571.575 151C572.407 151.896 572.823 153.368 572.823 155.416C572.823 157.464 572.215 159.704 570.999 162.136C569.783 164.568 568.023 165.784 565.719 165.784C564.567 165.784 563.447 165.528 562.359 165.016C561.335 164.504 559.959 164.248 558.231 164.248C556.503 164.248 554.871 164.856 553.335 166.072C551.863 167.288 551.127 168.76 551.127 170.488V190.648C551.127 192.12 551.063 193.24 550.935 194.008C550.871 194.712 550.583 195.544 550.071 196.504C549.111 198.168 546.615 199 542.583 199C539.511 199 537.303 198.456 535.959 197.368C534.935 196.472 534.359 195.096 534.231 193.24C534.231 192.6 534.231 191.672 534.231 190.456V156.76C534.231 155.288 534.263 154.2 534.327 153.496C534.455 152.728 534.743 151.896 535.191 151C536.087 149.272 538.583 148.408 542.679 148.408C546.519 148.408 548.919 149.144 549.879 150.616C550.583 151.64 550.935 152.696 550.935 153.784C551.255 153.336 551.703 152.792 552.279 152.152C552.919 151.512 554.231 150.648 556.215 149.56C558.199 148.472 559.927 147.928 561.399 147.928C562.935 147.928 564.215 148.024 565.239 148.216C566.263 148.344 567.383 148.6 568.599 148.984Z" fill="#EDEDED"/>
</g>
<defs>
<filter id="filter0_d" x="0.634369" y="0.600006" width="668.331" height="215.648" filterUnits="userSpaceOnUse" color-interpolation-filters="sRGB">
<feFlood flood-opacity="0" result="BackgroundImageFix"/>
<feColorMatrix in="SourceAlpha" type="matrix" values="0 0 0 0 0 0 0 0 0 0 0 0 0 0 0 0 0 0 127 0"/>
<feOffset dx="1" dy="4"/>
<feGaussianBlur stdDeviation="6"/>
<feColorMatrix type="matrix" values="0 0 0 0 0 0 0 0 0 0 0 0 0 0 0 0 0 0 0.39 0"/>
<feBlend mode="normal" in2="BackgroundImageFix" result="effect1_dropShadow"/>
<feBlend mode="normal" in="SourceGraphic" in2="effect1_dropShadow" result="shape"/>
</filter>
</defs>
</svg>
